<mxfile host="app.diagrams.net" modified="2023-12-13T00:00:02.996Z" agent="Mozilla/5.0 (Windows NT 10.0; Win64; x64) AppleWebKit/537.36 (KHTML, like Gecko) Chrome/120.0.0.0 Safari/537.36" etag="wZq7De7YBpdA13q4bjTJ" version="22.1.8" type="device">
  <diagram name="Page-1" id="b5b7bab2-c9e2-2cf4-8b2a-24fd1a2a6d21">
    <mxGraphModel dx="989" dy="541" grid="0" gridSize="10" guides="1" tooltips="1" connect="1" arrows="1" fold="1" page="1" pageScale="1" pageWidth="827" pageHeight="1169" background="none" math="0" shadow="0">
      <root>
        <mxCell id="0" />
        <mxCell id="1" parent="0" />
        <mxCell id="jMseRynj377iWy7TOQQa-10" style="rounded=0;orthogonalLoop=1;jettySize=auto;html=1;entryX=0.019;entryY=0.721;entryDx=0;entryDy=0;endArrow=none;endFill=0;entryPerimeter=0;" edge="1" parent="1" target="jMseRynj377iWy7TOQQa-4">
          <mxGeometry relative="1" as="geometry">
            <mxPoint x="133" y="360" as="sourcePoint" />
            <mxPoint x="215" y="288.46" as="targetPoint" />
          </mxGeometry>
        </mxCell>
        <mxCell id="jMseRynj377iWy7TOQQa-1" value="User" style="shape=umlActor;verticalLabelPosition=bottom;verticalAlign=top;html=1;outlineConnect=0;" vertex="1" parent="1">
          <mxGeometry x="98" y="350" width="30" height="60" as="geometry" />
        </mxCell>
        <mxCell id="jMseRynj377iWy7TOQQa-3" value="Dodaj wydatek" style="ellipse;whiteSpace=wrap;html=1;" vertex="1" parent="1">
          <mxGeometry x="182" y="126" width="120" height="80" as="geometry" />
        </mxCell>
        <mxCell id="jMseRynj377iWy7TOQQa-4" value="Przeglądaj wydatki" style="ellipse;whiteSpace=wrap;html=1;" vertex="1" parent="1">
          <mxGeometry x="246" y="254" width="120" height="80" as="geometry" />
        </mxCell>
        <mxCell id="jMseRynj377iWy7TOQQa-5" value="Dodaj osobę do grupy" style="ellipse;whiteSpace=wrap;html=1;" vertex="1" parent="1">
          <mxGeometry x="405" y="467" width="120" height="80" as="geometry" />
        </mxCell>
        <mxCell id="jMseRynj377iWy7TOQQa-6" value="Stwórz grupę" style="ellipse;whiteSpace=wrap;html=1;" vertex="1" parent="1">
          <mxGeometry x="243" y="360" width="120" height="80" as="geometry" />
        </mxCell>
        <mxCell id="jMseRynj377iWy7TOQQa-7" value="Przeglądaj grupy" style="ellipse;whiteSpace=wrap;html=1;" vertex="1" parent="1">
          <mxGeometry x="198" y="492" width="120" height="80" as="geometry" />
        </mxCell>
        <mxCell id="jMseRynj377iWy7TOQQa-12" style="rounded=0;orthogonalLoop=1;jettySize=auto;html=1;entryX=0.993;entryY=0.392;entryDx=0;entryDy=0;dashed=1;entryPerimeter=0;" edge="1" parent="1" source="jMseRynj377iWy7TOQQa-9" target="jMseRynj377iWy7TOQQa-3">
          <mxGeometry relative="1" as="geometry" />
        </mxCell>
        <mxCell id="jMseRynj377iWy7TOQQa-18" style="rounded=0;orthogonalLoop=1;jettySize=auto;html=1;entryX=1;entryY=0;entryDx=0;entryDy=0;dashed=1;" edge="1" parent="1" source="jMseRynj377iWy7TOQQa-9" target="jMseRynj377iWy7TOQQa-4">
          <mxGeometry relative="1" as="geometry" />
        </mxCell>
        <mxCell id="jMseRynj377iWy7TOQQa-9" value="Dodaj osobę winną pieniądze do wydatku" style="ellipse;whiteSpace=wrap;html=1;" vertex="1" parent="1">
          <mxGeometry x="375.5" y="113" width="133" height="80" as="geometry" />
        </mxCell>
        <mxCell id="jMseRynj377iWy7TOQQa-13" value="&amp;lt;&amp;lt;extend&amp;gt;&amp;gt;" style="text;html=1;strokeColor=none;fillColor=none;align=center;verticalAlign=middle;whiteSpace=wrap;rounded=0;" vertex="1" parent="1">
          <mxGeometry x="311" y="133" width="60" height="30" as="geometry" />
        </mxCell>
        <mxCell id="jMseRynj377iWy7TOQQa-14" style="rounded=0;orthogonalLoop=1;jettySize=auto;html=1;entryX=0.199;entryY=0.946;entryDx=0;entryDy=0;endArrow=none;endFill=0;entryPerimeter=0;" edge="1" parent="1" target="jMseRynj377iWy7TOQQa-3">
          <mxGeometry relative="1" as="geometry">
            <mxPoint x="121" y="345" as="sourcePoint" />
            <mxPoint x="183" y="249" as="targetPoint" />
          </mxGeometry>
        </mxCell>
        <mxCell id="jMseRynj377iWy7TOQQa-15" style="rounded=0;orthogonalLoop=1;jettySize=auto;html=1;endArrow=none;endFill=0;entryX=0;entryY=0.335;entryDx=0;entryDy=0;entryPerimeter=0;" edge="1" parent="1" target="jMseRynj377iWy7TOQQa-5">
          <mxGeometry relative="1" as="geometry">
            <mxPoint x="133" y="391" as="sourcePoint" />
            <mxPoint x="349" y="458" as="targetPoint" />
          </mxGeometry>
        </mxCell>
        <mxCell id="jMseRynj377iWy7TOQQa-16" style="rounded=0;orthogonalLoop=1;jettySize=auto;html=1;entryX=0;entryY=0;entryDx=0;entryDy=0;endArrow=none;endFill=0;" edge="1" parent="1" target="jMseRynj377iWy7TOQQa-7">
          <mxGeometry relative="1" as="geometry">
            <mxPoint x="133" y="401" as="sourcePoint" />
            <mxPoint x="220" y="291" as="targetPoint" />
          </mxGeometry>
        </mxCell>
        <mxCell id="jMseRynj377iWy7TOQQa-19" value="&amp;lt;&amp;lt;include&amp;gt;&amp;gt;" style="text;html=1;strokeColor=none;fillColor=none;align=center;verticalAlign=middle;whiteSpace=wrap;rounded=0;" vertex="1" parent="1">
          <mxGeometry x="366" y="197" width="60" height="30" as="geometry" />
        </mxCell>
        <mxCell id="jMseRynj377iWy7TOQQa-21" style="rounded=0;orthogonalLoop=1;jettySize=auto;html=1;dashed=1;exitX=-0.014;exitY=0.596;exitDx=0;exitDy=0;exitPerimeter=0;" edge="1" parent="1" source="jMseRynj377iWy7TOQQa-5">
          <mxGeometry relative="1" as="geometry">
            <mxPoint x="389" y="404" as="sourcePoint" />
            <mxPoint x="321" y="525" as="targetPoint" />
          </mxGeometry>
        </mxCell>
        <mxCell id="jMseRynj377iWy7TOQQa-22" value="&amp;lt;&amp;lt;extend&amp;gt;&amp;gt;" style="text;html=1;strokeColor=none;fillColor=none;align=center;verticalAlign=middle;whiteSpace=wrap;rounded=0;" vertex="1" parent="1">
          <mxGeometry x="318" y="572" width="60" height="30" as="geometry" />
        </mxCell>
        <mxCell id="jMseRynj377iWy7TOQQa-23" value="&amp;lt;&amp;lt;include&amp;gt;&amp;gt;" style="text;html=1;strokeColor=none;fillColor=none;align=center;verticalAlign=middle;whiteSpace=wrap;rounded=0;" vertex="1" parent="1">
          <mxGeometry x="341" y="515" width="60" height="30" as="geometry" />
        </mxCell>
        <mxCell id="jMseRynj377iWy7TOQQa-24" style="rounded=0;orthogonalLoop=1;jettySize=auto;html=1;entryX=0.906;entryY=0.823;entryDx=0;entryDy=0;dashed=1;exitX=0;exitY=0;exitDx=0;exitDy=0;entryPerimeter=0;" edge="1" parent="1" source="jMseRynj377iWy7TOQQa-5" target="jMseRynj377iWy7TOQQa-6">
          <mxGeometry relative="1" as="geometry">
            <mxPoint x="398" y="410" as="sourcePoint" />
            <mxPoint x="325" y="498" as="targetPoint" />
          </mxGeometry>
        </mxCell>
        <mxCell id="jMseRynj377iWy7TOQQa-26" style="rounded=0;orthogonalLoop=1;jettySize=auto;html=1;entryX=0.947;entryY=0.819;entryDx=0;entryDy=0;dashed=1;entryPerimeter=0;" edge="1" parent="1" source="jMseRynj377iWy7TOQQa-25" target="jMseRynj377iWy7TOQQa-7">
          <mxGeometry relative="1" as="geometry" />
        </mxCell>
        <mxCell id="jMseRynj377iWy7TOQQa-25" value="Przeglądaj osoby&lt;br&gt;w grupie" style="ellipse;whiteSpace=wrap;html=1;" vertex="1" parent="1">
          <mxGeometry x="385" y="584.5" width="120" height="80" as="geometry" />
        </mxCell>
        <mxCell id="jMseRynj377iWy7TOQQa-27" value="&amp;lt;&amp;lt;extend&amp;gt;&amp;gt;" style="text;html=1;strokeColor=none;fillColor=none;align=center;verticalAlign=middle;whiteSpace=wrap;rounded=0;" vertex="1" parent="1">
          <mxGeometry x="366" y="426" width="60" height="30" as="geometry" />
        </mxCell>
        <mxCell id="jMseRynj377iWy7TOQQa-29" style="rounded=0;orthogonalLoop=1;jettySize=auto;html=1;entryX=0.992;entryY=0.335;entryDx=0;entryDy=0;dashed=1;entryPerimeter=0;" edge="1" parent="1" source="jMseRynj377iWy7TOQQa-28" target="jMseRynj377iWy7TOQQa-4">
          <mxGeometry relative="1" as="geometry" />
        </mxCell>
        <mxCell id="jMseRynj377iWy7TOQQa-28" value="Sprawdź szczegóły&lt;br&gt;wydatku" style="ellipse;whiteSpace=wrap;html=1;" vertex="1" parent="1">
          <mxGeometry x="488" y="203" width="120" height="80" as="geometry" />
        </mxCell>
        <mxCell id="jMseRynj377iWy7TOQQa-30" value="&amp;lt;&amp;lt;extend&amp;gt;&amp;gt;" style="text;html=1;strokeColor=none;fillColor=none;align=center;verticalAlign=middle;whiteSpace=wrap;rounded=0;" vertex="1" parent="1">
          <mxGeometry x="412" y="240" width="60" height="30" as="geometry" />
        </mxCell>
        <mxCell id="jMseRynj377iWy7TOQQa-31" value="Rozlicz się z wydatku" style="ellipse;whiteSpace=wrap;html=1;" vertex="1" parent="1">
          <mxGeometry x="448.5" y="293" width="120" height="80" as="geometry" />
        </mxCell>
        <mxCell id="jMseRynj377iWy7TOQQa-32" style="rounded=0;orthogonalLoop=1;jettySize=auto;html=1;entryX=0.965;entryY=0.685;entryDx=0;entryDy=0;entryPerimeter=0;dashed=1;" edge="1" parent="1" source="jMseRynj377iWy7TOQQa-31" target="jMseRynj377iWy7TOQQa-4">
          <mxGeometry relative="1" as="geometry" />
        </mxCell>
        <mxCell id="jMseRynj377iWy7TOQQa-33" value="&amp;lt;&amp;lt;include&amp;gt;&amp;gt;" style="text;html=1;strokeColor=none;fillColor=none;align=center;verticalAlign=middle;whiteSpace=wrap;rounded=0;" vertex="1" parent="1">
          <mxGeometry x="385" y="293" width="60" height="30" as="geometry" />
        </mxCell>
        <mxCell id="jMseRynj377iWy7TOQQa-35" style="rounded=0;orthogonalLoop=1;jettySize=auto;html=1;endArrow=none;endFill=0;entryX=0;entryY=0.5;entryDx=0;entryDy=0;" edge="1" parent="1" target="jMseRynj377iWy7TOQQa-31">
          <mxGeometry relative="1" as="geometry">
            <mxPoint x="133" y="365" as="sourcePoint" />
            <mxPoint x="195" y="330" as="targetPoint" />
          </mxGeometry>
        </mxCell>
        <mxCell id="jMseRynj377iWy7TOQQa-37" value="" style="rounded=0;whiteSpace=wrap;html=1;fillColor=none;" vertex="1" parent="1">
          <mxGeometry x="174" y="104" width="524" height="567" as="geometry" />
        </mxCell>
        <mxCell id="jMseRynj377iWy7TOQQa-38" style="rounded=0;orthogonalLoop=1;jettySize=auto;html=1;entryX=0.021;entryY=0.671;entryDx=0;entryDy=0;endArrow=none;endFill=0;entryPerimeter=0;" edge="1" parent="1" target="jMseRynj377iWy7TOQQa-9">
          <mxGeometry relative="1" as="geometry">
            <mxPoint x="130" y="353" as="sourcePoint" />
            <mxPoint x="213" y="288" as="targetPoint" />
          </mxGeometry>
        </mxCell>
        <mxCell id="jMseRynj377iWy7TOQQa-39" style="rounded=0;orthogonalLoop=1;jettySize=auto;html=1;endArrow=none;endFill=0;entryX=-0.032;entryY=0.417;entryDx=0;entryDy=0;entryPerimeter=0;" edge="1" parent="1" target="jMseRynj377iWy7TOQQa-6">
          <mxGeometry relative="1" as="geometry">
            <mxPoint x="133" y="380" as="sourcePoint" />
            <mxPoint x="390" y="514" as="targetPoint" />
          </mxGeometry>
        </mxCell>
      </root>
    </mxGraphModel>
  </diagram>
</mxfile>
